<?xml version="1.0" encoding="UTF-8"?>
<svg width="22px" height="22px" viewBox="0 0 22 22" version="1.1" xmlns="http://www.w3.org/2000/svg" xmlns:xlink="http://www.w3.org/1999/xlink">
    <title>Buoy</title>
    <defs></defs>
    <g id="Page-1" stroke="none" stroke-width="1" fill="none" fill-rule="evenodd">
        <g id="iconTemplate">
            <rect id="Path" x="0" y="0" width="22" height="22"></rect>
            <g id="Group" fill="#000000">
                <path d="M13.0634244,19.9939556 C12.5556961,20.6492339 11.820271,21.0833333 11.0068269,21.0833333 C10.1898389,21.0833333 9.4423843,20.6574591 8.93447656,19.9966894 C8.42656883,20.6574591 7.6791142,21.0833333 6.86212618,21.0833333 C6.04759181,21.0833333 5.31128567,20.6480694 4.80348833,19.9913194 C4.29569099,20.6480694 3.55938485,21.0833333 2.74485047,21.0833333 C1.25714152,21.0833333 0,19.6711667 0,18 L1.37242524,18 C1.37242524,18.30525 1.90492623,19.0277778 2.74485047,19.0277778 C3.59918518,19.0277778 4.11727571,18.3145 4.11727571,18 L5.48970095,18 C5.48970095,18.30525 6.02220194,19.0277778 6.86212618,19.0277778 C7.71577468,19.0277778 8.23455142,18.3145 8.23455142,18 L9.60697666,18 L9.63440171,18 C9.63440171,18.30525 10.1669027,19.0277778 11.0068269,19.0277778 C11.8611617,19.0277778 12.3792522,18.3145 12.3792522,18 L13.7516774,18 L13.7654486,18 C13.7654486,18.3035785 14.2921336,19.0198772 15.1241033,19.027713 C15.9777512,19.0277778 16.4965279,18.3145 16.4965279,18 L17.8689531,18 L17.8827243,18 C17.8827243,18.30525 18.4152253,19.0277778 19.2551495,19.0277778 C20.108798,19.0277778 20.6275748,18.3145 20.6275748,18 L22,18 C22,19.6711667 20.7428585,21.0833333 19.2551495,21.0833333 C18.4417055,21.0833333 17.7062803,20.6492339 17.1985521,19.9939556 C16.9091941,20.3712594 16.5418087,20.6722114 16.1279556,20.8613602 C15.8200566,21.0037736 15.4861147,21.0833333 15.1378738,21.0833333 C15.1355776,21.0833333 15.1332818,21.08333 15.1309867,21.0833232 C15.1286946,21.08333 15.1263989,21.0833333 15.1241027,21.0833333 C14.7758618,21.0833333 14.4419199,21.0037736 14.1340209,20.8613602 C13.7201677,20.6722114 13.3527824,20.3712594 13.0634244,19.9939556 Z" id="Path"></path>
                <path d="M11.3433755,8.32360091 L0.141332223,7.09204065 L0.141332223,0.199517485 L11.5264233,7.58943615 L11.5295323,7.57696677 C11.6741952,6.99675557 12.2637858,6.64459834 12.8470533,6.79002325 C13.4303207,6.93544816 13.7855706,7.52318057 13.6409077,8.10339177 L13.3790744,9.15354779 L13.9069182,9.28515404 L14.4347621,9.41676029 L14.3038454,9.9418383 L13.92746,11.4514376 L14.2988377,16.0755009 L14.9751376,16.2441214 L15.5029815,16.3757277 L15.3720648,16.9008057 C15.1946459,17.612394 14.9302056,18.3150444 14.5514861,18.9270892 C14.4583583,19.0788638 14.2884903,19.2782983 14.0492613,19.488233 C13.4381129,19.4128122 12.9613185,19.1953054 12.6188783,18.8357127 L10.7398552,19.5003432 L9.14745898,18.6356947 C8.69975298,19.1054726 8.09872348,19.3936887 7.34437048,19.5003432 C6.14377442,18.5322726 5.69356069,17.2533527 5.69360654,16.7185718 C5.62135818,16.0395104 5.68112293,15.2929496 5.87087562,14.5318931 L6.00179227,14.0068151 L6.52963612,14.1384214 L7.20593604,14.3070419 L9.70470929,10.3985876 L10.0810947,8.88898829 L10.2120113,8.36391028 L10.7398552,8.49551653 L11.267699,8.62712278 L11.3433755,8.32360091 Z" id="Buoy" fill-rule="nonzero"></path>
            </g>
        </g>
    </g>
</svg>
